<svg xmlns="http://www.w3.org/2000/svg" width="348" height="113" viewBox="0 0 348 113">
  <g fill="none" fill-rule="evenodd">
    <path class="logo" fill="#181564" fill-rule="nonzero" d="M24.2967711 86.5801881C29.6508713 86.5801881 34.0222568 85.0599178 37.4109278 82.0193773L37.4109278 82.0193773 34.5644442 75.2288367C32.0568277 77.7288367 29.1764573 78.9788367 25.9233332 78.9788367 23.6190369 78.9788367 21.7722112 78.3538367 20.3828561 77.1038367 18.993501 75.8538367 18.2988234 74.0126205 18.2988234 71.5801881L18.2988234 71.5801881 18.2988234 41.8842421 37.1059475 41.8842421 37.1059475 34.8909989 18.2988234 34.8909989 18.2988234 20.499107 10.166013 22.7288367 10.166013 34.8909989 0 34.8909989 0 41.8842421 10.166013 41.8842421 10.166013 72.999107C10.2337864 77.5937016 11.5723115 81.0058637 14.1815881 83.2355935 16.7908648 85.4653232 20.1625925 86.5801881 24.2967711 86.5801881zM45.5996717 85.5666745L45.5996717 58.7085664C45.5996717 54.6545124 46.3621227 51.2930259 47.8870247 48.624107 49.4119266 45.9551881 51.3773558 44.0126205 53.7833122 42.7964043 56.1892686 41.5801881 58.7138285 40.97208 61.3569919 40.97208 65.1523034 40.97208 68.185164 42.1545124 70.4555735 44.5193773 72.7259831 46.8842421 73.8611879 50.7018097 73.8611879 55.97208L73.8611879 55.97208 73.8611879 85.5666745 81.9939983 85.5666745 81.9939983 53.1342421C81.9939983 46.9180259 80.1302292 42.1545124 76.4026911 38.8437016 72.675153 35.5328908 67.9310136 33.8774854 62.1702729 33.8774854 58.5782817 33.8774854 55.3421009 34.5869448 52.4617305 36.0058637 49.5813602 37.4247827 47.2940072 39.5869448 45.5996717 42.4923502L45.5996717 42.4923502 45.5996717 11.5801881 37.4668613 11.5801881 37.4668613 85.5666745 45.5996717 85.5666745zM93.0292258 25.1612691C94.8591081 25.1612691 96.33318 24.6038367 97.4514415 23.4889718 98.5697029 22.374107 99.1288336 20.9045124 99.1288336 19.0801881 99.1288336 17.2558637 98.5697029 15.7862691 97.4514415 14.6714043 96.33318 13.5565394 94.8591081 12.999107 93.0292258 12.999107 91.1993435 12.999107 89.7252716 13.5565394 88.6070102 14.6714043 87.4887487 15.7862691 86.929618 17.2558637 86.929618 19.0801881 86.929618 20.9045124 87.4887487 22.374107 88.6070102 23.4889718 89.7252716 24.6038367 91.1993435 25.1612691 93.0292258 25.1612691zM97.095631 34.8909989L97.095631 85.5666745 88.9628206 85.5666745 88.9628206 34.8909989 97.095631 34.8909989zM129.276166 33.8774854C135.036906 33.8774854 139.781046 35.5328908 143.508584 38.8437016 145.465436 40.5817836 146.908642 42.7202237 147.838202 45.2590219L140.966754 59.0554854 140.967081 55.97208 140.963755 55.4822481C140.895022 50.4646304 139.760925 46.8103401 137.561466 44.5193773 135.291057 42.1545124 132.258196 40.97208 128.462885 40.97208 125.751948 40.97208 123.210444 41.5632962 120.838375 42.7457286 118.466305 43.928161 116.517819 45.8538367 114.992917 48.5227556 113.534315 51.0756346 112.773306 54.2621671 112.709888 58.082353L112.705564 58.6072151 112.705564 85.5666745 104.572754 85.5666745 104.572754 34.8909989 111.688963 34.8909989 112.197264 42.7964043 112.421915 42.4043144C114.096137 39.5620061 116.359436 37.4460811 119.211813 36.0565394 122.193843 34.6038367 125.548627 33.8774854 129.276166 33.8774854zM178.472817 40.8067253C182.852058 45.3022305 185.041679 51.606078 185.041679 59.7182679 185.041679 61.8525464 184.895323 63.6370902 184.602612 65.0718993L184.532465 65.3968008 149.804065 65.3968008 149.878473 65.8064357C150.450256 68.7752825 151.596646 70.9709921 153.317642 72.3935645 155.116865 73.8807994 157.510171 74.6244168 160.49756 74.6244168 163.009683 74.6244168 165.063513 74.1512057 166.659051 73.2047835 168.160733 72.3140333 169.196311 71.0340476 169.765785 69.3648265L169.867099 69.0472862 183.921408 73.5089907 183.779241 73.924466C182.315714 78.047037 179.596373 81.2041224 175.621218 83.395722 171.513558 85.660375 166.472339 86.7927015 160.49756 86.7927015 151.839684 86.7927015 145.160081 84.6148031 140.45875 80.2590063L152.506 56.0672848 168.848671 56.0677825C168.033929 49.4428274 164.910749 46.1303499 159.479132 46.1303499 158.732382 46.1303499 158.026942 46.1914237 157.362811 46.3135714L163.37903 34.2362848C169.763378 34.8407497 174.79464 37.0308965 178.472817 40.8067253zM207.586161 86.7927015C211.388292 86.7927015 214.732132 85.8462794 217.617678 83.9534351 220.503224 82.0605908 222.692845 79.4579299 224.18654 76.1454524L224.18654 76.1454524 224.797597 85.7786778 240.379547 85.7786778 240.379547 13.5801881 223.066269 13.5801881 223.066269 43.5952905C221.572574 40.6208209 219.535718 38.2885663 216.9557 36.5985268 214.375682 34.9084872 211.28645 34.0634675 207.688004 34.0634675 201.102168 34.0634675 195.942132 36.395722 192.207896 41.0602312 188.473659 45.7247404 186.606541 52.2482931 186.606541 60.6308892 186.606541 68.8782823 188.456685 75.3004326 192.156974 79.8973402 195.857263 84.4942478 201.000325 86.7927015 207.586161 86.7927015zM213.594887 74.1174049C210.539602 74.1174049 208.180244 73.0019788 206.516811 70.7711266 204.853378 68.5402744 204.021662 65.0925937 204.021662 60.4280845 204.021662 55.7635753 204.853378 52.3158946 206.516811 50.0850424 208.180244 47.8541902 210.539602 46.7387641 213.594887 46.7387641 216.37859 46.7387641 218.602159 47.7527878 220.265591 49.7808353 221.929024 51.8088828 222.862583 54.68195 223.066269 58.400037L223.066269 58.400037 223.066269 62.456132C222.862583 66.2418206 221.929024 69.1317882 220.265591 71.1260349 218.602159 73.1202816 216.37859 74.1174049 213.594887 74.1174049zM268.932755 107.580188C277.759133 107.580188 284.735366 106.042252 289.861454 102.96638 294.987542 99.8905081 297.550587 95.4795049 297.550587 89.7333704 297.550587 84.7308533 295.938075 80.9451647 292.713053 78.3763046 289.48803 75.8074444 284.922077 74.5230144 279.015194 74.5230144L279.015194 74.5230144 261.701915 74.5230144C258.171365 74.5230144 256.406089 73.3737875 256.406089 71.0753337 256.406089 69.250091 257.458465 68.0670633 259.563216 67.5262506 262.414815 68.1346649 265.673785 68.438872 269.340127 68.438872 277.215971 68.438872 283.32654 66.9516372 287.671833 63.9771676 292.017127 61.002698 294.189774 56.7775991 294.189774 51.3018709 294.189774 44.9473222 291.338175 40.282813 285.634977 37.3083434 286.313929 35.8887102 287.417226 34.7732841 288.944869 33.9620651 290.472511 33.1508461 292.390551 32.7452366 294.698988 32.7452366 295.242149 32.7452366 296.192682 32.8128382 297.550587 32.9480414L297.550587 32.9480414 295.615573 21.4895732 293.986088 21.3881708C289.776585 21.3881708 286.483667 22.6726009 284.107335 25.241461 281.731003 27.8103211 280.20336 31.1227986 279.524408 35.1788936 276.401229 34.4352762 273.006468 34.0634675 269.340127 34.0634675 261.464282 34.0634675 255.353713 35.5676027 251.00842 38.5758731 246.663126 41.5841435 244.49048 45.8261428 244.49048 51.3018709 244.49048 57.5888181 247.274183 62.2195264 252.841591 65.193996 250.261573 66.0728166 248.224716 67.4248483 246.731022 69.250091 245.237327 71.0753337 244.49048 73.1709827 244.49048 75.5370381 244.49048 80.3367505 247.104445 83.8520327 252.332376 86.0828849 249.141302 86.8265023 246.764969 88.0433308 245.203379 89.7333704 243.64179 91.4234099 242.860995 93.3838558 242.860995 95.614708 242.860995 99.4003966 244.98272 102.341065 249.226171 104.436714 253.469621 106.532364 260.038483 107.580188 268.932755 107.580188zM269.340127 58.6028418C267.099585 58.6028418 265.283388 57.9437264 263.891536 56.6254955 262.499684 55.3072647 261.803758 53.5327231 261.803758 51.3018709 261.803758 49.0710187 262.499684 47.2795768 263.891536 45.9275451 265.283388 44.5755135 267.099585 43.8994977 269.340127 43.8994977 271.580669 43.8994977 273.396865 44.5755135 274.788717 45.9275451 276.180569 47.2795768 276.876495 49.0710187 276.876495 51.3018709 276.876495 53.5327231 276.180569 55.3072647 274.788717 56.6254955 273.396865 57.9437264 271.580669 58.6028418 269.340127 58.6028418zM270.154869 96.425927C260.717435 96.425927 255.998718 94.8710906 255.998718 91.7614178 255.998718 90.5445894 256.592801 89.6488684 257.780967 89.0742549 258.969133 88.4996415 260.955068 88.2123348 263.738772 88.2123348L263.738772 88.2123348 277.691238 88.2123348C279.931779 88.2123348 281.527317 88.4827411 282.47785 89.0235538 283.428383 89.5643664 283.903649 90.3755854 283.903649 91.4572107 283.903649 92.9444455 282.732457 94.1443736 280.390072 95.056995 278.047687 95.9696163 274.635953 96.425927 270.154869 96.425927zM323.455881 86.7927015C329.43066 86.7927015 334.471879 85.660375 338.57954 83.395722 342.6872 81.131069 345.45393 77.8354919 346.879729 73.5089907L346.879729 73.5089907 332.82542 69.0472862C332.282259 70.8725289 331.212909 72.2583614 329.617372 73.2047835 328.021834 74.1512057 325.968004 74.6244168 323.455881 74.6244168 320.468492 74.6244168 318.075186 73.8807994 316.275963 72.3935645 314.47674 70.9063297 313.305547 68.5740752 312.762386 65.3968008L312.762386 65.3968008 347.490786 65.3968008C347.830262 63.909566 348 62.0167217 348 59.7182679 348 51.606078 345.810379 45.3022305 341.431138 40.8067253 337.051897 36.3112201 330.754617 34.0634675 322.539296 34.0634675 314.052395 34.0634675 307.500507 36.3619213 302.883633 40.9588288 298.266758 45.5557364 295.958321 52.0454883 295.958321 60.4280845 295.958321 68.8106807 298.31768 75.3004326 303.036397 79.8973402 307.755114 84.4942478 314.561609 86.7927015 323.455881 86.7927015zM331.806992 56.0677825L312.660543 56.0677825C313.678971 49.4428274 316.937941 46.1303499 322.437453 46.1303499 327.86907 46.1303499 330.99225 49.4428274 331.806992 56.0677825L331.806992 56.0677825z"/>
    <path fill="#FFE400" d="M147.198944,-3.99784252 C149.684259,-3.99665065 151.698707,-1.98220211 151.699898,0.503112725 L151.753642,112.651572 C151.754831,115.133808 149.743546,117.147022 147.261309,117.148212 C147.259873,117.148213 147.258436,117.148213 147.257,117.148212 C144.771685,117.14702 142.757237,115.132572 142.756046,112.647257 L142.702302,0.498797774 C142.701113,-1.98343855 144.712399,-3.99665299 147.194635,-3.99784253 C147.196071,-3.99784321 147.197508,-3.99784321 147.198944,-3.99784252 Z" transform="rotate(26.5 147.228 56.575)"/>
  </g>
</svg>